<svg width="32" height="32" viewBox="0 0 32 32" fill="none" xmlns="http://www.w3.org/2000/svg">
<path d="M27 31.3606H5.00001C4.80101 31.3606 4.64001 31.1996 4.64001 31.0006V26.8386C3.23201 26.6606 2.14001 25.4556 2.14001 24.0006C2.14001 22.5456 3.23201 21.3406 4.64001 21.1626V17.0006C4.64001 16.8016 4.80101 16.6406 5.00001 16.6406H6.81801C8.25001 14.7246 10.304 13.2616 12.569 12.5256C10.714 11.3546 9.55501 9.30363 9.55501 7.08063C9.55501 3.52962 12.444 0.640625 15.995 0.640625C19.546 0.640625 22.435 3.52962 22.435 7.08063C22.435 9.30363 21.277 11.3536 19.421 12.5246C21.692 13.2626 23.75 14.7256 25.182 16.6406H27C27.199 16.6406 27.36 16.8016 27.36 17.0006V21.1626C28.767 21.3406 29.86 22.5456 29.86 24.0006C29.86 25.4556 28.767 26.6606 27.36 26.8386V31.0006C27.36 31.1996 27.199 31.3606 27 31.3606ZM5.36001 30.6406H26.64V26.8386C25.233 26.6606 24.14 25.4556 24.14 24.0006C24.14 22.5456 25.233 21.3406 26.64 21.1626V17.3606H5.36001V21.1626C6.76801 21.3406 7.86001 22.5456 7.86001 24.0006C7.86001 25.4556 6.76801 26.6606 5.36001 26.8386V30.6406ZM27 21.8606C25.82 21.8606 24.86 22.8206 24.86 24.0006C24.86 25.1806 25.82 26.1406 27 26.1406C28.18 26.1406 29.14 25.1806 29.14 24.0006C29.14 22.8206 28.18 21.8606 27 21.8606ZM5.00001 21.8606C3.82001 21.8606 2.86001 22.8206 2.86001 24.0006C2.86001 25.1806 3.82001 26.1406 5.00001 26.1406C6.18001 26.1406 7.14001 25.1806 7.14001 24.0006C7.14001 22.8206 6.18001 21.8606 5.00001 21.8606ZM7.73501 16.6406H24.266C22.765 14.8366 20.657 13.5186 18.382 12.9806C18.232 12.9456 18.121 12.8176 18.107 12.6646C18.092 12.5116 18.177 12.3656 18.318 12.3026C20.382 11.3786 21.715 9.32862 21.715 7.08162C21.715 3.92762 19.15 1.36162 15.995 1.36162C12.84 1.36162 10.275 3.92762 10.275 7.08162C10.275 9.32862 11.609 11.3786 13.672 12.3026C13.813 12.3656 13.898 12.5116 13.883 12.6646C13.868 12.8186 13.758 12.9456 13.608 12.9806C11.341 13.5176 9.23601 14.8356 7.73501 16.6406ZM16 29.3606C15.25 29.3606 14.64 28.7506 14.64 28.0006C14.64 27.2506 15.25 26.6406 16 26.6406C16.75 26.6406 17.36 27.2506 17.36 28.0006C17.36 28.7506 16.75 29.3606 16 29.3606ZM16 27.3606C15.647 27.3606 15.36 27.6476 15.36 28.0006C15.36 28.3536 15.647 28.6406 16 28.6406C16.353 28.6406 16.64 28.3536 16.64 28.0006C16.64 27.6476 16.353 27.3606 16 27.3606ZM11 27.3606C10.25 27.3606 9.64001 26.7506 9.64001 26.0006C9.64001 25.2506 10.25 24.6406 11 24.6406C11.75 24.6406 12.36 25.2506 12.36 26.0006C12.36 26.7506 11.75 27.3606 11 27.3606ZM11 25.3606C10.647 25.3606 10.36 25.6476 10.36 26.0006C10.36 26.3536 10.647 26.6406 11 26.6406C11.353 26.6406 11.64 26.3536 11.64 26.0006C11.64 25.6476 11.353 25.3606 11 25.3606ZM21 25.3606C20.375 25.3606 19.847 24.9356 19.688 24.3606H17.311C17.153 24.9356 16.625 25.3606 15.999 25.3606C15.249 25.3606 14.639 24.7506 14.639 24.0006C14.639 23.9486 14.642 23.8976 14.647 23.8486L12.082 22.8226C11.835 23.1486 11.442 23.3606 11 23.3606C10.25 23.3606 9.64001 22.7506 9.64001 22.0006C9.64001 21.2506 10.25 20.6406 11 20.6406C11.75 20.6406 12.36 21.2506 12.36 22.0006C12.36 22.0526 12.357 22.1036 12.352 22.1536L14.917 23.1786C15.166 22.8516 15.559 22.6396 16 22.6396C16.625 22.6396 17.153 23.0646 17.312 23.6396H19.689C19.847 23.0646 20.376 22.6396 21.001 22.6396C21.751 22.6396 22.361 23.2496 22.361 23.9996C22.361 24.7496 21.75 25.3606 21 25.3606ZM21 23.3606C20.647 23.3606 20.36 23.6476 20.36 24.0006C20.36 24.3536 20.647 24.6406 21 24.6406C21.353 24.6406 21.64 24.3536 21.64 24.0006C21.64 23.6476 21.353 23.3606 21 23.3606ZM16 23.3606C15.647 23.3606 15.36 23.6476 15.36 24.0006C15.36 24.3536 15.647 24.6406 16 24.6406C16.353 24.6406 16.64 24.3536 16.64 24.0006C16.64 23.6476 16.353 23.3606 16 23.3606ZM11 21.3606C10.647 21.3606 10.36 21.6476 10.36 22.0006C10.36 22.3536 10.647 22.6406 11 22.6406C11.353 22.6406 11.64 22.3536 11.64 22.0006C11.64 21.6476 11.353 21.3606 11 21.3606ZM16 21.3606C15.25 21.3606 14.64 20.7506 14.64 20.0006C14.64 19.2506 15.25 18.6406 16 18.6406C16.75 18.6406 17.36 19.2506 17.36 20.0006C17.36 20.7506 16.75 21.3606 16 21.3606ZM16 19.3606C15.647 19.3606 15.36 19.6476 15.36 20.0006C15.36 20.3536 15.647 20.6406 16 20.6406C16.353 20.6406 16.64 20.3536 16.64 20.0006C16.64 19.6476 16.353 19.3606 16 19.3606Z" fill="white"/>
</svg>
