<svg width="800" height="800" viewBox="0 0 800 800" fill="none" xmlns="http://www.w3.org/2000/svg">
<g clip-path="url(#clip0_89_82)">
<path d="M76.7668 0.000181729C66.6795 -0.0217903 56.6872 1.94884 47.3635 5.79894C38.0399 9.64905 29.5684 15.3028 22.4356 22.4356C15.3028 29.5684 9.64905 38.0399 5.79894 47.3635C1.94884 56.6872 -0.0217903 66.6795 0.000181729 76.7668V723.234C-0.0217903 733.321 1.94884 743.313 5.79894 752.637C9.64905 761.96 15.3028 770.432 22.4356 777.565C29.5684 784.698 38.0399 790.351 47.3635 794.201C56.6872 798.051 66.6795 800.022 76.7668 800H723.234C733.321 800.022 743.313 798.051 752.637 794.201C761.96 790.351 770.432 784.698 777.565 777.565C784.698 770.432 790.351 761.96 794.201 752.637C798.051 743.313 800.022 733.321 800 723.234V76.7668C800.022 66.6795 798.051 56.6872 794.201 47.3635C790.351 38.0399 784.698 29.5684 777.565 22.4356C770.432 15.3028 761.96 9.64905 752.637 5.79894C743.313 1.94884 733.321 -0.0217903 723.234 0.000181729H76.7668ZM349.333 102.4C485.933 102.4 583.6 150.334 605.333 161.2L565.533 246.2C484.133 210.967 399.1 199.2 376.467 199.2C324 199.2 304.133 229.933 304.133 257.967V541.1C304.133 570.067 324 600.8 376.467 600.8C399.1 600.8 484.133 588.134 565.533 553.8L605.333 637C590.833 646.034 484.1 697.6 349.333 697.6C312.267 697.6 194.667 689.467 194.667 542.934V257.1C194.667 110.534 312.267 102.4 349.333 102.4Z" fill="white"/>
</g>
<defs>
<clipPath id="clip0_89_82">
<rect width="800" height="800" fill="white"/>
</clipPath>
</defs>
</svg>
