<svg width="92" height="92" viewBox="0 0 92 92" fill="none" xmlns="http://www.w3.org/2000/svg">
<path d="M90.2813 88.8906H6.94529C4.64839 88.8906 2.77729 87.0234 2.77729 84.7226L2.7812 1.3906C2.7812 0.62497 2.16011 0 1.3906 0C0.62107 0 0 0.62109 0 1.3906V84.7226C0 88.5507 3.1172 91.6679 6.9453 91.6679H90.2773C91.0468 91.6679 91.6679 91.0468 91.6679 90.2773C91.6679 89.5117 91.0468 88.8867 90.2773 88.8867L90.2813 88.8906Z" fill="#FFFCFC"/>
<path d="M6.6063 77.7381C6.72349 77.7694 6.83677 77.7811 6.95005 77.7811C7.57114 77.7811 8.13365 77.3631 8.29385 76.7342C13.2391 57.3592 16.243 56.9142 16.6063 56.9452C17.5399 56.9882 18.8211 59.953 19.5907 61.7225C20.9345 64.828 22.329 68.0389 24.9969 68.0584H25.0243C28.6102 68.0584 30.4305 62.3709 32.5399 55.7884C33.4852 52.8314 35.0516 47.9407 36.0985 47.2572C37.5712 48.2572 39.3212 56.7338 40.2665 61.3312C42.2196 70.8078 43.1962 74.9952 45.8407 74.9992H45.8446C48.7079 74.9992 49.786 70.0695 52.1376 55.9992C53.2938 49.0773 55.2079 37.6012 56.9892 36.1712C58.1728 37.1282 59.8017 43.2376 60.79 46.9372C63.1338 55.7224 64.7392 61.1092 68.0673 61.1092H68.0712C71.9814 61.1092 73.7314 53.3553 76.4853 39.6562C77.8525 32.8515 80.1415 21.4612 81.9541 20.8282C82.251 20.9102 84.9775 22.2852 88.9268 44.6832C89.0596 45.4371 89.7784 45.9371 90.5362 45.8121C91.2901 45.6793 91.7979 44.9566 91.6612 44.2027C87.63 21.3157 84.63 18.0547 81.9971 18.0547H81.9346C78.1651 18.1289 76.458 25.7109 73.7666 39.1097C72.3604 46.1058 70.0049 57.8127 68.083 58.3327C66.626 58.0202 64.5791 50.3444 63.4775 46.2197C61.2861 38.0049 59.8994 33.3287 57.0009 33.3287H56.915C53.4502 33.4342 51.9658 40.1764 49.3994 55.5357C48.3955 61.5552 47.0517 69.5907 45.8486 71.8287C44.9033 70.0475 43.7666 64.5475 42.9892 60.7667C40.9111 50.6847 39.4697 44.5007 36.1494 44.4427C33.29 44.4192 31.8603 48.8177 29.8994 54.9387C28.7392 58.552 26.5869 65.2787 25.0283 65.2787H25.0244C24.165 65.2709 22.9033 62.3568 22.1494 60.6146C20.8017 57.5091 19.4111 54.2943 16.7471 54.1693C14.0049 54.0404 10.5909 56.5443 5.61406 76.0483C5.42265 76.7905 5.87187 77.5483 6.61796 77.7358L6.6063 77.7381Z" fill="#FFFCFC"/>
<path d="M18.0593 68.0586C18.0593 67.293 17.4382 66.668 16.6687 66.668C15.8992 66.668 15.2781 67.2891 15.2781 68.0586V70.8359C15.2781 71.6015 15.8992 72.2265 16.6687 72.2265C17.4382 72.2265 18.0593 71.6054 18.0593 70.8359V68.0586Z" fill="#FFFCFC"/>
<path d="M16.6683 75.0039C15.8988 75.0039 15.2777 75.625 15.2777 76.3945V79.1718C15.2777 79.9374 15.8988 80.5624 16.6683 80.5624C17.4378 80.5624 18.0589 79.9413 18.0589 79.1718V76.3945C18.0589 75.6289 17.4378 75.0039 16.6683 75.0039Z" fill="#FFFCFC"/>
<path d="M26.3913 72.2265C26.3913 71.4609 25.7702 70.8359 25.0007 70.8359C24.2312 70.8359 23.6101 71.457 23.6101 72.2265V75.0038C23.6101 75.7695 24.2312 76.3944 25.0007 76.3944C25.7702 76.3944 26.3913 75.7733 26.3913 75.0038V72.2265Z" fill="#FFFCFC"/>
<path d="M25.0043 79.168C24.2348 79.168 23.6137 79.7891 23.6137 80.5586V83.3359C23.6137 84.1015 24.2348 84.7265 25.0043 84.7265C25.7738 84.7265 26.3949 84.1054 26.3949 83.3359V80.5586C26.3949 79.793 25.7738 79.168 25.0043 79.168Z" fill="#FFFCFC"/>
<path d="M36.1133 75.0039C35.3438 75.0039 34.7227 75.625 34.7227 76.3945V79.1718C34.7227 79.9374 35.3438 80.5624 36.1133 80.5624C36.8828 80.5624 37.5039 79.9413 37.5039 79.1718V76.3945C37.5039 75.6289 36.8828 75.0039 36.1133 75.0039Z" fill="#FFFCFC"/>
<path d="M37.5043 59.7265C37.5043 58.9609 36.8832 58.3359 36.1137 58.3359C35.3442 58.3359 34.7231 58.957 34.7231 59.7265V62.5038C34.7231 63.2695 35.3442 63.8944 36.1137 63.8944C36.8832 63.8944 37.5043 63.2733 37.5043 62.5038V59.7265Z" fill="#FFFCFC"/>
<path d="M37.5043 68.0586C37.5043 67.293 36.8832 66.668 36.1137 66.668C35.3442 66.668 34.7231 67.2891 34.7231 68.0586V70.8359C34.7231 71.6015 35.3442 72.2265 36.1137 72.2265C36.8832 72.2265 37.5043 71.6054 37.5043 70.8359V68.0586Z" fill="#FFFCFC"/>
<path d="M44.4453 79.1679V81.9452C44.4453 82.7109 45.0664 83.3358 45.8359 83.3358C46.6054 83.3358 47.2265 82.7148 47.2265 81.9452V79.1679C47.2265 78.4023 46.6054 77.7773 45.8359 77.7773C45.0664 77.7773 44.4453 78.3984 44.4453 79.1679Z" fill="#FFFCFC"/>
<path d="M58.3363 65.2812C58.3363 64.5156 57.7152 63.8906 56.9457 63.8906C56.1762 63.8906 55.5551 64.5117 55.5551 65.2812V68.0585C55.5551 68.8241 56.1762 69.4491 56.9457 69.4491C57.7152 69.4491 58.3363 68.828 58.3363 68.0585V65.2812Z" fill="#FFFCFC"/>
<path d="M56.9453 80.5586C56.1758 80.5586 55.5547 81.1797 55.5547 81.9492V84.7265C55.5547 85.4921 56.1758 86.1171 56.9453 86.1171C57.7148 86.1171 58.3359 85.496 58.3359 84.7265V81.9492C58.3359 81.1836 57.7148 80.5586 56.9453 80.5586Z" fill="#FFFCFC"/>
<path d="M58.3363 56.9453C58.3363 56.1797 57.7152 55.5547 56.9457 55.5547C56.1762 55.5547 55.5551 56.1758 55.5551 56.9453V59.7226C55.5551 60.4882 56.1762 61.1132 56.9457 61.1132C57.7152 61.1132 58.3363 60.4921 58.3363 59.7226V56.9453Z" fill="#FFFCFC"/>
<path d="M58.3363 73.6133C58.3363 72.8476 57.7152 72.2227 56.9457 72.2227C56.1762 72.2227 55.5551 72.8437 55.5551 73.6133V76.3906C55.5551 77.1562 56.1762 77.7812 56.9457 77.7812C57.7152 77.7812 58.3363 77.1601 58.3363 76.3906V73.6133Z" fill="#FFFCFC"/>
<path d="M58.3363 48.6133C58.3363 47.8476 57.7152 47.2227 56.9457 47.2227C56.1762 47.2227 55.5551 47.8437 55.5551 48.6133V51.3906C55.5551 52.1562 56.1762 52.7812 56.9457 52.7812C57.7152 52.7812 58.3363 52.1601 58.3363 51.3906V48.6133Z" fill="#FFFCFC"/>
<path d="M68.0593 80.5586C67.2898 80.5586 66.6687 81.1797 66.6687 81.9492V84.7265C66.6687 85.4921 67.2898 86.1171 68.0593 86.1171C68.8288 86.1171 69.4499 85.496 69.4499 84.7265V81.9492C69.4499 81.1836 68.8288 80.5586 68.0593 80.5586Z" fill="#FFFCFC"/>
<path d="M69.4453 65.2812C69.4453 64.5156 68.8242 63.8906 68.0547 63.8906C67.2852 63.8906 66.6641 64.5117 66.6641 65.2812V68.0585C66.6641 68.8241 67.2852 69.4491 68.0547 69.4491C68.8242 69.4491 69.4453 68.828 69.4453 68.0585V65.2812Z" fill="#FFFCFC"/>
<path d="M69.4453 73.6133C69.4453 72.8476 68.8242 72.2227 68.0547 72.2227C67.2852 72.2227 66.6641 72.8437 66.6641 73.6133V76.3906C66.6641 77.1562 67.2852 77.7812 68.0547 77.7812C68.8242 77.7812 69.4453 77.1601 69.4453 76.3906V73.6133Z" fill="#FFFCFC"/>
<path d="M83.3363 61.1133C83.3363 60.3476 82.7152 59.7227 81.9457 59.7227C81.1762 59.7227 80.5551 60.3437 80.5551 61.1133V63.8906C80.5551 64.6562 81.1762 65.2812 81.9457 65.2812C82.7152 65.2812 83.3363 64.6601 83.3363 63.8906V61.1133Z" fill="#FFFCFC"/>
<path d="M83.3363 52.7812C83.3363 52.0156 82.7152 51.3906 81.9457 51.3906C81.1762 51.3906 80.5551 52.0117 80.5551 52.7812V55.5585C80.5551 56.3241 81.1762 56.9491 81.9457 56.9491C82.7152 56.9491 83.3363 56.328 83.3363 55.5585V52.7812Z" fill="#FFFCFC"/>
<path d="M81.9453 76.3906C81.1758 76.3906 80.5547 77.0117 80.5547 77.7812V80.5585C80.5547 81.3241 81.1758 81.9491 81.9453 81.9491C82.7148 81.9491 83.3359 81.328 83.3359 80.5585V77.7812C83.3359 77.0156 82.7148 76.3906 81.9453 76.3906Z" fill="#FFFCFC"/>
<path d="M83.3363 69.4453C83.3363 68.6797 82.7152 68.0547 81.9457 68.0547C81.1762 68.0547 80.5551 68.6758 80.5551 69.4453V72.2226C80.5551 72.9882 81.1762 73.6132 81.9457 73.6132C82.7152 73.6132 83.3363 72.9921 83.3363 72.2226V69.4453Z" fill="#FFFCFC"/>
<path d="M83.3363 44.4453C83.3363 43.6797 82.7152 43.0547 81.9457 43.0547C81.1762 43.0547 80.5551 43.6758 80.5551 44.4453V47.2226C80.5551 47.9882 81.1762 48.6132 81.9457 48.6132C82.7152 48.6132 83.3363 47.9921 83.3363 47.2226V44.4453Z" fill="#FFFCFC"/>
<path d="M83.3363 36.1133C83.3363 35.3476 82.7152 34.7227 81.9457 34.7227C81.1762 34.7227 80.5551 35.3437 80.5551 36.1133V38.8906C80.5551 39.6562 81.1762 40.2812 81.9457 40.2812C82.7152 40.2812 83.3363 39.6601 83.3363 38.8906V36.1133Z" fill="#FFFCFC"/>
<path d="M90.2813 56.9453C89.5118 56.9453 88.8907 57.5664 88.8907 58.3359V61.1132C88.8907 61.8788 89.5118 62.5038 90.2813 62.5038C91.0508 62.5038 91.6719 61.8827 91.6719 61.1132V58.3359C91.6719 57.5703 91.0508 56.9453 90.2813 56.9453Z" fill="#FFFCFC"/>
<path d="M90.2813 48.6133C89.5118 48.6133 88.8907 49.2344 88.8907 50.0039V52.7812C88.8907 53.5468 89.5118 54.1718 90.2813 54.1718C91.0508 54.1718 91.6719 53.5507 91.6719 52.7812V50.0039C91.6719 49.2383 91.0508 48.6133 90.2813 48.6133Z" fill="#FFFCFC"/>
<path d="M90.2813 65.2812C89.5118 65.2812 88.8907 65.9023 88.8907 66.6719V69.4492C88.8907 70.2148 89.5118 70.8398 90.2813 70.8398C91.0508 70.8398 91.6719 70.2187 91.6719 69.4492V66.6719C91.6719 65.9062 91.0508 65.2812 90.2813 65.2812Z" fill="#FFFCFC"/>
<path d="M90.2813 73.6133C89.5118 73.6133 88.8907 74.2344 88.8907 75.0039V77.7812C88.8907 78.5468 89.5118 79.1718 90.2813 79.1718C91.0508 79.1718 91.6719 78.5507 91.6719 77.7812V75.0039C91.6719 74.2383 91.0508 73.6133 90.2813 73.6133Z" fill="#FFFCFC"/>
<path d="M90.2813 81.9453C89.5118 81.9453 88.8907 82.5664 88.8907 83.3359V84.7265C88.8907 85.4921 89.5118 86.1171 90.2813 86.1171C91.0508 86.1171 91.6719 85.496 91.6719 84.7265V83.3359C91.6719 82.5703 91.0508 81.9453 90.2813 81.9453Z" fill="#FFFCFC"/>
<path d="M29.1683 41.6686C39.1253 41.6686 47.2233 33.5709 47.2233 23.6136C47.2233 15.3831 41.6803 8.4336 34.1333 6.2696C34.4966 5.65241 34.7231 4.9376 34.7231 4.168C34.7231 1.8711 32.8559 0 30.5551 0H27.7778C25.4809 0 23.6098 1.8672 23.6098 4.168C23.6098 4.93753 23.8325 5.6485 24.1997 6.2696C16.6528 8.4337 11.1097 15.3829 11.1097 23.6136C11.1097 33.5706 19.2113 41.6686 29.1647 41.6686H29.1683ZM27.7816 5.5596C27.016 5.5596 26.391 4.9346 26.391 4.169C26.391 3.4034 27.0121 2.7784 27.7816 2.7784H30.5589C31.3245 2.7784 31.9495 3.4034 31.9495 4.169C31.9495 4.9346 31.3284 5.5596 30.5589 5.5596H27.7816ZM29.1683 8.3369C37.5941 8.3369 44.4453 15.1924 44.4453 23.6139C44.4453 32.0397 37.5898 38.8909 29.1683 38.8909C20.7425 38.8909 13.8913 32.0354 13.8913 23.6139C13.8913 15.1881 20.7468 8.3369 29.1683 8.3369Z" fill="#FFFCFC"/>
<path d="M29.1683 25.0035H40.2773C41.0468 25.0035 41.6679 24.3824 41.6679 23.6129C41.6679 22.8472 41.0468 22.2223 40.2773 22.2223H30.5546V11.1133C30.5546 10.3476 29.9335 9.72266 29.164 9.72266C28.3945 9.72266 27.7734 10.3437 27.7734 11.1133V23.6133C27.7734 24.3789 28.3945 25.0039 29.164 25.0039L29.1683 25.0035Z" fill="#FFFCFC"/>
<path d="M29.1683 37.5038C29.9378 37.5038 30.5589 36.8827 30.5589 36.1132V34.7226C30.5589 33.957 29.9378 33.332 29.1683 33.332C28.3988 33.332 27.7777 33.9531 27.7777 34.7226V36.1132C27.7777 36.8789 28.3988 37.5038 29.1683 37.5038Z" fill="#FFFCFC"/>
<path d="M19.4453 23.6133C19.4453 22.8476 18.8242 22.2227 18.0547 22.2227H16.6641C15.8946 22.2227 15.2735 22.8437 15.2735 23.6133C15.2735 24.3789 15.8946 25.0039 16.6641 25.0039H18.0547C18.8242 25.0039 19.4453 24.3828 19.4453 23.6133Z" fill="#FFFCFC"/>
</svg>
