<?xml version="1.0" standalone="no"?>
<!DOCTYPE svg PUBLIC "-//W3C//DTD SVG 20010904//EN"
 "http://www.w3.org/TR/2001/REC-SVG-20010904/DTD/svg10.dtd">
<svg version="1.0" xmlns="http://www.w3.org/2000/svg"
 width="400.000000pt" height="400.000000pt" viewBox="0 0 400.000000 400.000000"
 preserveAspectRatio="xMidYMid meet">
<metadata>
Created by potrace 1.14, written by Peter Selinger 2001-2017
</metadata>
<g transform="translate(0.000000,400.000000) scale(0.100000,-0.100000)"
fill="#000000" stroke="none">
<path d="M1835 3993 c-95 -11 -250 -37 -315 -54 -41 -11 -82 -21 -90 -24 -188
-48 -455 -184 -640 -325 -104 -80 -285 -254 -340 -328 -19 -26 -38 -49 -41
-52 -42 -32 -269 -439 -269 -482 0 -7 -4 -18 -9 -23 -21 -22 -91 -289 -107
-410 -3 -27 -8 -59 -11 -70 -2 -11 -6 -96 -7 -190 -3 -175 10 -318 41 -455 9
-41 18 -82 20 -91 6 -34 62 -200 88 -261 141 -328 346 -592 636 -822 123 -96
435 -266 534 -291 6 -1 17 -5 25 -8 97 -37 273 -76 425 -94 122 -15 480 -7
537 11 7 3 31 7 53 10 22 3 69 12 105 22 36 9 70 17 75 18 100 21 343 124 453
193 29 18 55 33 58 33 3 0 35 21 72 47 401 278 681 676 807 1143 14 52 28 113
30 135 3 22 7 47 10 55 19 69 27 434 12 550 -84 638 -408 1139 -962 1487 -110
69 -426 202 -525 219 -14 3 -52 11 -85 19 -33 7 -82 16 -110 19 -27 3 -61 9
-75 12 -28 6 -348 12 -395 7z"/>
</g>
</svg>
